<svg xmlns="http://www.w3.org/2000/svg" width="512" height="480" viewBox="0 0 512 480">
  <path id="briefcase-blank-regular" d="M176,56V96H336V56a8.024,8.024,0,0,0-8-8H184A8.024,8.024,0,0,0,176,56ZM128,96V56A56.036,56.036,0,0,1,184,0H328a56.036,56.036,0,0,1,56,56V96h64a64.059,64.059,0,0,1,64,64V416a64.059,64.059,0,0,1-64,64H64A64.059,64.059,0,0,1,0,416V160A64.059,64.059,0,0,1,64,96Zm232,48H64a16.047,16.047,0,0,0-16,16V416a16.047,16.047,0,0,0,16,16H448a16.047,16.047,0,0,0,16-16V160a16.047,16.047,0,0,0-16-16Z" fill="#000"/>
</svg>
