<svg xmlns="http://www.w3.org/2000/svg" width="480.067" height="512" viewBox="0 0 480.067 512">
  <path id="family-regular" d="M192,64a64,64,0,1,0-64,64,64,64,0,0,0,64-64ZM105.6,208h77.1a79.369,79.369,0,0,1-6.7-32,86.489,86.489,0,0,1,.8-11.5,79.98,79.98,0,0,0-26.4-4.5H105.6a79.953,79.953,0,0,0-79.7,73.4l-4.1,49.3A63.96,63.96,0,0,0,64,348.3V488a24,24,0,0,0,48,0V352h32V336a112.523,112.523,0,0,1,4.6-32h-63a15.921,15.921,0,0,1-15.9-17.3l4.1-49.3A31.927,31.927,0,0,1,105.6,208ZM336,176a79.369,79.369,0,0,1-6.7,32h70.4a16.05,16.05,0,0,1,15.4,11.6L448.4,336H368v16a94.367,94.367,0,0,1-5.5,32H400V488a24,24,0,0,0,48,0V384h21.6a32.007,32.007,0,0,0,30.8-40.8L461.3,206.4A63.932,63.932,0,0,0,399.8,160H368.3a63.755,63.755,0,0,0-32.6,8.9c.2,2.3.3,4.7.3,7.1ZM448,64a64,64,0,1,0-64,64,64,64,0,0,0,64-64ZM256,224a48,48,0,1,0-48-48,48,48,0,0,0,48,48Zm32,112v16a16.047,16.047,0,0,1-16,16H240a16.047,16.047,0,0,1-16-16V336a32,32,0,0,1,64,0Zm48,16V336a80,80,0,0,0-160,0v16a63.848,63.848,0,0,0,32.7,55.8,44.651,44.651,0,0,0-.7,8.2v64a31.966,31.966,0,0,0,32,32h32a31.966,31.966,0,0,0,32-32V416a44.651,44.651,0,0,0-.7-8.2A63.848,63.848,0,0,0,336,352Z" transform="translate(-21.571)" fill="#a0ff27"/>
</svg>
