<svg xmlns="http://www.w3.org/2000/svg" width="576.011" height="512" viewBox="0 0 576.011 512">
  <path id="house-heart-regular" d="M303.5,5.7a24.061,24.061,0,0,0-31.1,0l-264,224a23.982,23.982,0,1,0,31,36.6L64,245.5V432a79.978,79.978,0,0,0,80,80H432a79.978,79.978,0,0,0,80-80V245.5l24.5,20.8a23.982,23.982,0,0,0,31-36.6l-264-224ZM112,432V204.8L288,55.5,464,204.8V432a31.966,31.966,0,0,1-32,32H144A31.966,31.966,0,0,1,112,432Zm64-162.7a61.656,61.656,0,0,0,17.9,43.3l82.7,82.7a16.055,16.055,0,0,0,22.6,0l82.7-82.7a61.306,61.306,0,0,0-86.7-86.7l-7.4,7.4-7.4-7.4a61.306,61.306,0,0,0-104.6,43.4Z" transform="translate(0.056)" fill="#a0ff27"/>
</svg>
